<?xml version="1.0" encoding="utf-8"?>
<!-- Generator: Adobe Illustrator 15.1.0, SVG Export Plug-In . SVG Version: 6.00 Build 0)  -->
<!DOCTYPE svg PUBLIC "-//W3C//DTD SVG 1.1//EN" "http://www.w3.org/Graphics/SVG/1.1/DTD/svg11.dtd">
<svg version="1.1" id="Layer_1" xmlns="http://www.w3.org/2000/svg" xmlns:xlink="http://www.w3.org/1999/xlink" x="0px" y="0px"
	 width="2500px" height="2500px" viewBox="-65 0 2500 2500" enable-background="new -65 0 2500 2500" xml:space="preserve">
<path fill="#DD1B16" d="M-65,0v2500h2500V0H-65z"/>
<path fill="#A6120D" d="M2435,0H1178.594l0.019,2500H2435V0z"/>
<path fill="#F2F2F2" d="M1472.242,1399.423l-293.63,137.312H869.133l-145.478,363.879l-270.587,4.999l725.544-1614.081
	l293.63,1107.901V1399.423z M1443.857,1330.295l-263.292-521.243L964.59,1321.324h214.013l265.255,8.979V1330.295z"/>
<path fill="#B3B3B3" d="M1178.603,291.522l1.944,517.53l245.055,512.67h-246.443l-0.556,214.68l340.78,0.324l159.271,368.942
	l258.913,4.796L1178.603,291.522L1178.603,291.522z"/>
</svg>
