<?xml version="1.0" encoding="utf-8"?>
<!-- Generator: Adobe Illustrator 15.1.0, SVG Export Plug-In . SVG Version: 6.00 Build 0)  -->
<!DOCTYPE svg PUBLIC "-//W3C//DTD SVG 1.1//EN" "http://www.w3.org/Graphics/SVG/1.1/DTD/svg11.dtd">
<svg version="1.1"
	 id="svg3476" xmlns:svg="http://www.w3.org/2000/svg" xmlns="http://www.w3.org/2000/svg" xmlns:xlink="http://www.w3.org/1999/xlink" x="0px" y="0px" width="360px" height="360px"
	 viewBox="-34.906 24.8 360 360" enable-background="new -34.906 24.8 360 360" xml:space="preserve">
<polygon fill="#264DE4" points="325.094,24.8 325.094,384.8 -34.906,384.8 -34.906,24.8 "/>
<polygon fill="#2965F1" points="325.094,384.8 325.094,24.8 145.094,24.8 145.094,384.8 "/>
<polygon fill="#EBEBEB" points="66.356,213.854 69.388,247.681 145.086,247.681 145.086,213.854 "/>
<polygon fill="#EBEBEB" points="145.086,145.388 144.969,145.388 60.264,145.388 63.339,179.216 145.086,179.216
	"/>
<polygon fill="#EBEBEB" points="145.086,336.901 145.086,301.707 144.938,301.746 107.265,291.574
	104.856,264.595 86.551,264.595 70.899,264.595 75.638,317.708 144.93,336.944 "/>
<path fill="#FFFFFF" d="M73.574,71.321h40.97v17.133H90.707v17.133h23.838v17.133
	h-40.97V71.321z"/>
<path fill="#FFFFFF" d="M122.739,71.321h40.97V86.22h-23.837v2.98h23.837v34.266
	h-40.97v-15.643h23.837v-2.979h-23.837V71.321z"/>
<path fill="#FFFFFF" d="M171.903,71.321h40.97V86.22h-23.837v2.98h23.837v34.266
	h-40.97v-15.643h23.838v-2.979h-23.838V71.321z"/>
<polygon fill="#FFFFFF" points="186.623,247.681 182.696,291.552 144.969,301.734 144.969,336.928 
	214.316,317.708 214.825,311.993 222.773,222.938 223.599,213.854 229.707,145.388 144.969,145.388 144.969,179.216
	192.635,179.216 189.556,213.854 144.969,213.854 144.969,247.681 "/>
</svg>
