<?xml version="1.0" encoding="utf-8"?>
<!-- Generator: Adobe Illustrator 15.1.0, SVG Export Plug-In . SVG Version: 6.00 Build 0)  -->
<!DOCTYPE svg PUBLIC "-//W3C//DTD SVG 1.1//EN" "http://www.w3.org/Graphics/SVG/1.1/DTD/svg11.dtd">
<svg version="1.1" id="Layer_1" xmlns="http://www.w3.org/2000/svg" xmlns:xlink="http://www.w3.org/1999/xlink" x="0px" y="0px"
	 width="2500px" height="2500px" viewBox="0 -127 2500 2500" enable-background="new 0 -127 2500 2500" xml:space="preserve">
<linearGradient id="SVGID_1_" gradientUnits="userSpaceOnUse" x1="848.6211" y1="1588.5176" x2="849.7764" y2="1587.285" gradientTransform="matrix(805.551 0 0 -795.189 -682484.5625 1263677.875)">
	<stop  offset="0" style="stop-color:#F9A03C"/>
	<stop  offset="1" style="stop-color:#F7974E"/>
</linearGradient>
<path fill="url(#SVGID_1_)" d="M2031.143,1456.964c0.696-6.748,1.193-13.557,1.58-20.402
	c0.472-8.105-487.605-471.191-487.605-471.191h-11.67c0,0,494.711,521.821,497.695,491.589V1456.964z"/>
<linearGradient id="SVGID_2_" gradientUnits="userSpaceOnUse" x1="846.9419" y1="1590.9502" x2="849.1517" y2="1588.7949" gradientTransform="matrix(392.6759 0 0 -394.6426 -332219 628543.5)">
	<stop  offset="0" style="stop-color:#F9A03C"/>
	<stop  offset="1" style="stop-color:#F7974E"/>
</linearGradient>
<path fill="url(#SVGID_2_)" d="M989.814,1296.318c-0.648,1.422-1.29,2.844-1.955,4.261c-0.69,1.488-1.405,2.971-2.113,4.442
	c-15.555,32.441,217.813,260.581,236.582,232.865c0.854-1.222,1.713-2.518,2.566-3.74c0.95-1.453,1.889-2.845,2.826-4.298
	C1242.731,1507.062,996.477,1281.501,989.814,1296.318L989.814,1296.318z"/>
<linearGradient id="SVGID_3_" gradientUnits="userSpaceOnUse" x1="846.7012" y1="1591.5615" x2="848.6671" y2="1589.3076" gradientTransform="matrix(400.7761 0 0 -389.963 -338584.0313 621635.5625)">
	<stop  offset="0" style="stop-color:#F9A03C"/>
	<stop  offset="1" style="stop-color:#F7974E"/>
</linearGradient>
<path fill="url(#SVGID_3_)" d="M1319.587,1617.139c-0.66,1.453-5.357,9.394-9.648,13.589
	c-0.726,1.453,227.818,228.108,227.818,228.108h20.579C1558.348,1858.836,1343.797,1626.721,1319.587,1617.139z"/>
<linearGradient id="SVGID_4_" gradientUnits="userSpaceOnUse" x1="850.394" y1="1587.1855" x2="850.8351" y2="1586.6033" gradientTransform="matrix(2498.3396 0 0 -2363.3909 -2123893.25 3751492)">
	<stop  offset="0" style="stop-color:#F26D58"/>
	<stop  offset="1" style="stop-color:#F9A03C"/>
</linearGradient>
<path fill="url(#SVGID_4_)" d="M2033.05,1432.445c-10.689,236.939-206.708,426.391-446.195,426.391h-32.381l-239.16-235.614
	c19.67-27.745,37.962-56.488,54.243-86.461h217.298c68.722,0,124.647-55.896,124.647-124.651
	c0-68.727-55.926-124.652-124.647-124.652h-128.592c9.8-51.793,15.155-105.2,15.155-159.836c0-55.471-5.453-109.637-15.604-162.257
	h79.876l493.949,486.71C2032.226,1445.549,2032.692,1439.031,2033.05,1432.445L2033.05,1432.445z M614.525,394.021H484.595v322.075
	h129.931c226.928,0,411.573,184.597,411.573,411.524c0,61.736-13.769,120.343-38.239,172.958l237.036,233.567
	c77.83-116.451,123.326-256.26,123.326-406.525C1348.221,723.117,1019.078,394.021,614.525,394.021z"/>
<linearGradient id="SVGID_5_" gradientUnits="userSpaceOnUse" x1="850.0767" y1="1587.2041" x2="850.723" y2="1586.7794" gradientTransform="matrix(1569.598 0 0 -1707.1244 -1333068.875 2709997.75)">
	<stop  offset="0" style="stop-color:#B84E51"/>
	<stop  offset="1" style="stop-color:#F68E48"/>
</linearGradient>
<path fill="url(#SVGID_5_)" d="M1586.854,394.021h-526.136c128.508,78.459,234.918,189.711,307.422,322.075h218.714
	c68.722,0,124.647,55.895,124.647,124.651c0,68.739-55.926,124.634-124.647,124.634h-49.146l493.948,486.704
	c1.162-13.2,1.888-26.486,1.888-39.977c0-108.577-38.959-208.178-103.649-285.699c64.69-77.485,103.649-177.104,103.649-285.663
	C2033.545,594.434,1833.182,394.021,1586.854,394.021z"/>
<linearGradient id="SVGID_6_" gradientUnits="userSpaceOnUse" x1="850.5249" y1="1587.9092" x2="850.5552" y2="1587.1418" gradientTransform="matrix(1726.1868 0 0 -904.572 -1467177 1437809.5)">
	<stop  offset="0" style="stop-color:#F9A03C"/>
	<stop  offset="1" style="stop-color:#F7974E"/>
</linearGradient>
<path fill="url(#SVGID_6_)" d="M1554.474,1858.836h-489.996c98.632-60.913,183.901-141.327,250.836-235.614L1554.474,1858.836
	L1554.474,1858.836z M1224.895,1534.146l-237.018-233.567c-65.482,140.728-208.178,238.604-373.352,238.604h-129.93v322.044h129.931
	C868.792,1861.227,1093.221,1731.169,1224.895,1534.146z"/>
</svg>
