<?xml version="1.0" encoding="utf-8"?>
<!-- Generator: Adobe Illustrator 15.1.0, SVG Export Plug-In . SVG Version: 6.00 Build 0)  -->
<!DOCTYPE svg PUBLIC "-//W3C//DTD SVG 1.1//EN" "http://www.w3.org/Graphics/SVG/1.1/DTD/svg11.dtd">
<svg version="1.1" id="Layer_1" xmlns="http://www.w3.org/2000/svg" xmlns:xlink="http://www.w3.org/1999/xlink" x="0px" y="0px"
	 width="2500px" height="2500px" viewBox="-28.5 0 2500 2500" enable-background="new -28.5 0 2500 2500" xml:space="preserve">
<path fill="#4285F4" d="M2033.792,1264.138c0-68.199-5.534-117.967-17.511-169.578h-778.774v307.82h457.124
	c-9.213,76.497-58.98,191.7-169.578,269.113l-1.551,10.306l246.233,190.754l17.061,1.703
	C1943.469,1729.559,2033.792,1516.662,2033.792,1264.138"/>
<path fill="#34A853" d="M1237.507,2075.169c223.952,0,411.962-73.733,549.289-200.913l-261.743-202.763
	c-70.043,48.847-164.051,82.946-287.546,82.946c-219.345,0-405.512-144.69-471.875-344.684l-9.728,0.827l-256.038,198.148
	l-3.348,9.309C632.917,1888.996,913.092,2075.169,1237.507,2075.169"/>
<path fill="#FBBC05" d="M765.631,1409.756c-17.511-51.61-27.645-106.911-27.645-164.05c0-57.144,10.134-112.439,26.723-164.05
	l-0.464-10.992L505,869.331l-8.482,4.035c-56.217,112.439-88.474,238.705-88.474,372.34c0,133.635,32.257,259.895,88.474,372.334
	L765.631,1409.756"/>
<path fill="#EB4335" d="M1237.507,736.967c155.753,0,260.815,67.278,320.724,123.501l234.093-228.564
	c-143.77-133.636-330.864-215.661-554.816-215.661c-324.415,0-604.589,186.167-740.989,457.124l268.192,208.29
	C831.995,881.663,1018.162,736.967,1237.507,736.967"/>
</svg>
