<?xml version="1.0" encoding="utf-8"?>
<!-- Generator: Adobe Illustrator 15.1.0, SVG Export Plug-In . SVG Version: 6.00 Build 0)  -->
<!DOCTYPE svg PUBLIC "-//W3C//DTD SVG 1.1//EN" "http://www.w3.org/Graphics/SVG/1.1/DTD/svg11.dtd">
<svg version="1.1" id="Layer_1" xmlns="http://www.w3.org/2000/svg" xmlns:xlink="http://www.w3.org/1999/xlink" x="0px" y="0px"
	 width="800px" height="800px" viewBox="0 0 800 800" enable-background="new 0 0 800 800" xml:space="preserve">
<title>HTML5 Logo Badge</title>
<path fill="#E34F26" d="M0,800V0h800v800"/>
<path fill="#EF652A" d="M398.438,800H800V0H400"/>
<path fill="#EBEBEB" d="M400,325H282.813L275,234.375h125v-87.5h-1.563H178.125l1.563,23.438l21.875,243.75H400V325z M400,554.688
	h-1.563L300,528.125l-6.25-70.313h-46.875H206.25l10.938,139.063l181.25,50H400V554.688z"/>
<path fill="#FFFFFF" d="M398.438,325v89.063h109.375l-10.938,114.063l-98.438,26.563v92.188l181.25-50l1.563-15.625l20.313-232.813
	L604.688,325h-25H398.438z M398.438,146.875v54.688v32.813l0,0H612.5l0,0l0,0l1.563-18.75l4.688-45.313l1.563-23.438H398.438z"/>
</svg>
