<?xml version="1.0" encoding="utf-8"?>
<!-- Generator: Adobe Illustrator 15.1.0, SVG Export Plug-In . SVG Version: 6.00 Build 0)  -->
<!DOCTYPE svg PUBLIC "-//W3C//DTD SVG 1.1//EN" "http://www.w3.org/Graphics/SVG/1.1/DTD/svg11.dtd">
<svg version="1.1" id="Layer_1" xmlns="http://www.w3.org/2000/svg" xmlns:xlink="http://www.w3.org/1999/xlink" x="0px" y="0px"
	 width="2500px" height="2500px" viewBox="0 0 2500 2500" enable-background="new 0 0 2500 2500" xml:space="preserve">
<path fill="#F7DF1E" d="M0,0h2500v2500H0V0z"/>
<path d="M476.732,1597.252l179.533-108.654c34.642,61.411,66.149,113.374,141.729,113.374c72.445,0,118.13-28.337,118.13-138.567
	V713.767h220.471v752.754c0,228.352-133.857,332.296-329.153,332.296c-176.371,0-278.748-91.343-330.719-201.583 M1256.347,1573.626
	l179.515-103.935c47.262,77.175,108.682,133.866,217.336,133.866c91.361,0,149.61-45.676,149.61-108.673
	c0-75.589-59.844-102.367-160.635-146.449l-55.106-23.644c-159.068-67.698-264.579-152.745-264.579-332.278
	c0-165.364,125.984-291.357,322.847-291.357c140.162,0,240.953,48.829,313.39,176.39l-171.67,110.248
	c-37.804-67.716-78.731-94.485-141.729-94.485c-64.573,0-105.521,40.947-105.521,94.485c0,66.141,40.947,92.929,135.434,133.876
	l55.115,23.616c187.414,80.327,292.925,162.212,292.925,346.455c0,198.448-155.906,307.103-365.361,307.103
	c-204.726,0-337.016-97.639-401.579-225.209"/>
</svg>
