<?xml version="1.0" encoding="utf-8"?>
<!-- Generator: Adobe Illustrator 15.1.0, SVG Export Plug-In . SVG Version: 6.00 Build 0)  -->
<!DOCTYPE svg PUBLIC "-//W3C//DTD SVG 1.1//EN" "http://www.w3.org/Graphics/SVG/1.1/DTD/svg11.dtd">
<svg version="1.1" id="Layer_1" xmlns="http://www.w3.org/2000/svg" xmlns:xlink="http://www.w3.org/1999/xlink" x="0px" y="0px"
	 width="2000px" height="2000px" viewBox="250 -113 2000 2000" enable-background="new 250 -113 2000 2000" xml:space="preserve">
<path fill="none" d="M149.589,115.16h2163.905V1615H149.589V115.16z"/>
<path fill="#5D87A1" d="M811.968,1326.478h-58.583c-2.072-98.884-7.777-191.848-17.105-278.958h-0.521l-89.193,278.958h-44.603
	l-88.662-278.958h-0.509c-6.577,83.636-10.721,176.621-12.442,278.958h-53.397c3.441-124.446,12.09-241.113,25.912-350.017h72.609
	l84.506,257.188h0.521l85.027-257.188h69.473C800.218,1104.02,809.206,1220.699,811.968,1326.478 M1066.032,1068.236
	c-23.852,129.437-55.323,223.486-94.378,282.194c-30.43,45.19-63.768,67.81-100.073,67.81c-9.679,0-21.622-2.921-35.772-8.717
	v-31.211c6.917,0.997,15.033,1.563,24.361,1.563c16.958,0,30.587-4.663,40.98-14.015c12.43-11.388,18.644-24.192,18.644-38.354
	c0-9.713-4.845-29.568-14.512-59.636l-64.289-199.646h57.552l46.142,149.315c10.37,33.905,14.694,57.576,12.962,71.059
	c25.233-67.391,42.859-140.871,52.9-220.386h55.481V1068.236L1066.032,1068.236z"/>
<path fill="#F8981D" d="M1845.838,1326.478h-166.41V976.461h55.979v306.931h110.431V1326.478z M1635.867,1334.934l-64.346-31.754
	c5.706-4.688,11.162-9.759,16.075-15.634c27.351-32.127,40.991-79.639,40.991-142.569c0-115.797-45.44-173.723-136.354-173.723
	c-44.58,0-79.356,14.693-104.228,44.094c-27.327,32.148-40.968,79.491-40.968,142.082c0,61.525,12.09,106.66,36.281,135.29
	c22.131,25.935,55.492,38.92,100.106,38.92c16.641,0,31.912-2.038,45.824-6.148l83.771,48.77L1635.867,1334.934z M1427.425,1256.438
	c-14.173-22.8-21.26-59.409-21.26-109.888c0-88.129,26.772-132.244,80.375-132.244c28.018,0,48.553,10.55,61.685,31.606
	c14.15,22.833,21.271,59.115,21.271,108.892c0,88.854-26.797,133.286-80.364,133.286
	C1461.103,1288.101,1440.567,1277.584,1427.425,1256.438 M1322.644,1229.461c0,29.683-10.891,54.032-32.648,73.107
	c-21.781,18.995-50.988,28.516-87.586,28.516c-34.233,0-67.424-10.936-99.551-32.692l15.045-30.057
	c27.644,13.845,52.674,20.728,75.145,20.728c21.089,0,37.572-4.675,49.526-13.946c11.943-9.306,19.063-22.358,19.063-38.863
	c0-20.795-14.501-38.568-41.104-53.455c-24.532-13.471-73.594-41.637-73.594-41.637c-26.592-19.38-39.905-40.187-39.905-74.465
	c0-28.368,9.928-51.271,29.795-68.692c19.89-17.489,45.554-26.207,77.013-26.207c32.49,0,62.024,8.706,88.627,25.936l-13.494,30.066
	c-22.754-9.667-45.213-14.501-67.367-14.501c-17.943,0-31.798,4.313-41.433,12.973c-9.712,8.627-15.701,19.664-15.701,33.203
	c0,20.693,14.807,38.692,42.134,53.874c24.859,13.494,75.145,42.146,75.145,42.146
	C1309.024,1174.84,1322.644,1195.454,1322.644,1229.461"/>
<path fill="#5D87A1" d="M1916.114,859.228c-33.848-0.861-60.054,2.547-82.05,11.853c-6.351,2.535-16.448,2.535-17.331,10.562
	c3.43,3.396,3.826,8.875,6.804,13.562c5.071,8.457,13.912,19.834,21.983,25.766c8.864,6.792,17.762,13.517,27.09,19.438
	c16.448,10.177,35.094,16.097,51.124,26.24c9.338,5.897,18.621,13.528,27.972,19.879c4.597,3.385,7.54,8.875,13.506,10.991v-1.289
	c-2.989-3.804-3.838-9.306-6.771-13.54l-12.701-12.249c-12.271-16.481-27.521-30.87-43.969-42.688
	c-13.539-9.328-43.153-22.007-48.644-37.606l-0.86-0.86c9.306-0.872,20.343-4.245,29.184-6.838
	c14.389-3.792,27.509-2.932,42.271-6.724c6.792-1.698,13.528-3.827,20.343-5.921v-3.815c-7.652-7.619-13.108-17.739-21.157-24.939
	c-21.532-18.599-45.26-36.791-69.779-52.017c-13.132-8.479-30.021-13.936-44.003-21.147c-5.037-2.547-13.527-3.803-16.493-8.037
	c-7.585-9.306-11.853-21.554-17.354-32.569c-12.227-23.241-24.102-49.028-34.651-73.604c-7.63-16.483-12.271-32.942-21.577-48.191
	c-43.583-71.885-90.914-115.423-163.659-158.158c-15.633-8.897-34.232-12.69-54.1-17.354l-31.731-1.675
	c-6.77-2.966-13.551-11.015-19.46-14.818c-24.135-15.215-86.271-48.191-104.022-4.653c-11.435,27.52,16.912,54.576,26.648,68.534
	c7.188,9.69,16.504,20.716,21.531,31.72c2.977,7.188,3.814,14.818,6.792,22.414c6.77,18.611,13.098,39.315,21.995,56.682
	c4.642,8.853,9.701,18.158,15.634,26.172c3.396,4.687,9.306,6.759,10.596,14.4c-5.897,8.422-6.361,21.134-9.747,31.708
	c-15.214,47.783-9.271,106.978,12.295,142.093c6.747,10.573,22.844,33.848,44.375,24.928c19.063-7.607,14.841-31.708,20.32-52.844
	c1.256-5.105,0.431-8.457,2.966-11.807v0.827c5.897,11.83,11.853,23.229,17.321,35.093c13.119,20.705,35.964,42.282,54.993,56.625
	c10.132,7.653,18.158,20.738,30.849,25.414v-1.268h-0.838c-2.569-3.792-6.328-5.49-9.701-8.434
	c-7.631-7.619-16.075-16.924-21.996-25.37c-17.728-23.693-33.418-49.923-47.342-76.99c-6.814-13.131-12.69-27.486-18.181-40.594
	c-2.559-5.061-2.559-12.69-6.804-15.238c-6.362,9.295-15.633,17.343-20.274,28.732c-8.049,18.214-8.887,40.617-11.875,63.915
	l-1.665,0.815c-13.471-3.385-18.157-17.32-23.274-29.149c-12.667-30.044-14.796-78.27-3.804-112.933
	c2.943-8.864,15.679-36.78,10.597-45.225c-2.548-8.094-11.015-12.701-15.656-19.075c-5.456-8.015-11.435-18.158-15.238-27.056
	c-10.142-23.671-15.247-49.9-26.172-73.56c-5.105-11.026-13.97-22.437-21.146-32.591c-8.061-11.411-16.924-19.449-23.297-32.977
	c-2.106-4.652-5.062-12.26-1.676-17.32c0.826-3.396,2.547-4.664,5.92-5.513c5.479-4.63,21.136,1.256,26.626,3.803
	c15.679,6.34,28.787,12.26,41.874,21.135c5.92,4.246,12.271,12.283,19.867,14.4h8.898c13.505,2.943,28.73,0.815,41.443,4.641
	c22.403,7.2,42.701,17.762,60.904,29.162c55.39,35.127,101.067,85.038,131.905,144.652c5.06,9.712,7.211,18.61,11.829,28.742
	c8.909,20.74,19.925,41.886,28.765,62.184c8.888,19.867,17.354,40.153,30.045,56.658c6.328,8.875,31.754,13.528,43.153,18.181
	c8.434,3.792,21.565,7.166,29.173,11.819c14.388,8.863,28.72,19.041,42.247,28.788
	C1893.688,840.187,1914.857,850.76,1916.114,859.228 M1484.74,491.722c-5.84-0.061-11.66,0.655-17.31,2.129v0.849h0.815
	c3.407,6.759,9.328,11.445,13.551,17.343c3.407,6.781,6.361,13.505,9.701,20.275l0.814-0.838c5.967-4.223,8.933-10.992,8.933-21.146
	c-2.57-2.989-2.966-5.909-5.105-8.875C1493.649,497.224,1488.158,495.118,1484.74,491.722"/>
<path fill="#F8981D" d="M1956.393,1326.421h8.763v-42.882h-13.144l-10.721,29.263l-11.648-29.263h-12.656v42.882h8.275v-32.626
	h0.464l12.204,32.626h6.306l12.157-32.626V1326.421z M1885.81,1326.421h9.272v-35.614h12.135v-7.279h-34.052v7.279h12.623
	L1885.81,1326.421L1885.81,1326.421z"/>
</svg>
