<?xml version="1.0" encoding="utf-8"?>
<!-- Generator: Adobe Illustrator 15.1.0, SVG Export Plug-In . SVG Version: 6.00 Build 0)  -->
<!DOCTYPE svg PUBLIC "-//W3C//DTD SVG 1.1//EN" "http://www.w3.org/Graphics/SVG/1.1/DTD/svg11.dtd">
<svg version="1.1" id="Layer_1" xmlns="http://www.w3.org/2000/svg" xmlns:xlink="http://www.w3.org/1999/xlink" x="0px" y="0px"
	 width="2000px" height="2000px" viewBox="250 -345.5 2000 2000" enable-background="new 250 -345.5 2000 2000"
	 xml:space="preserve">
<ellipse fill="#8993BE" cx="1218.5" cy="657" rx="1640" ry="1358"/>
<path fill="#232531" d="M858.316,373.05H579.273L458.595,983.957h143.303l30.169-158.383h135.741
	c128.222,7.544,271.516-98.044,271.516-279.052C1039.324,440.925,978.985,380.595,858.316,373.05z M752.736,712.449h-90.5h-0.009
	l37.714-226.266h98.044c52.794,0,90.5,22.625,90.5,67.875C880.95,682.28,820.611,704.905,752.736,712.449z"/>
<path fill="#232531" d="M1868.953,373.05H1589.9l-120.669,610.907h143.294l30.17-158.383h135.758
	c128.214,7.544,271.516-98.044,271.516-279.052C2049.969,440.925,1989.631,380.595,1868.953,373.05z M1763.373,712.449h-90.509
	h-0.009l37.715-226.266h98.053c52.794,0,90.499,22.625,90.499,67.875C1891.586,682.28,1831.247,704.905,1763.373,712.449z"/>
<path fill="#232531" d="M1328.054,825.574h150.839l52.794-309.222c15.081-75.428-30.169-135.758-150.847-143.302h-135.75
	l30.169-158.375h-143.303l-120.669,610.898h143.303l67.875-339.391h113.133c52.786,0,52.786,22.625,45.25,60.339L1328.054,825.574z"
	/>
</svg>
