<?xml version="1.0" encoding="utf-8"?>
<!-- Generator: Adobe Illustrator 15.1.0, SVG Export Plug-In . SVG Version: 6.00 Build 0)  -->
<!DOCTYPE svg PUBLIC "-//W3C//DTD SVG 1.1//EN" "http://www.w3.org/Graphics/SVG/1.1/DTD/svg11.dtd">
<svg version="1.1" id="Layer_1" xmlns="http://www.w3.org/2000/svg" xmlns:xlink="http://www.w3.org/1999/xlink" x="0px" y="0px"
	 width="2500px" height="2500px" viewBox="0 0 2500 2500" enable-background="new 0 0 2500 2500" xml:space="preserve">
<circle fill="#2DAAE1" cx="1376.444" cy="1252.281" r="1904.758"/>
<path fill="#FFFFFF" d="M2177.926,755.053c-58.961,26.163-122.288,43.85-188.871,51.8
	c67.954-40.692,120.013-105.174,144.592-181.919c-64.551,38.34-135.195,65.331-208.866,79.801
	c-59.953-63.905-145.446-103.803-240.03-103.803c-181.549,0-328.785,147.177-328.785,328.832c0,25.739,2.898,50.85,8.472,74.958
	c-273.298-13.735-515.595-144.647-677.776-343.569c-28.318,48.582-44.528,105.067-44.528,165.335
	c0,114.07,58.061,214.716,146.281,273.671c-52.226-1.618-103.305-15.715-148.968-41.111v4.155
	c0,159.338,113.332,292.198,263.773,322.415c-27.637,7.572-56.639,11.528-86.643,11.528c-21.214,0-41.796-2.008-61.902-5.79
	c41.847,130.599,163.29,225.662,307.144,228.349c-112.542,88.222-254.351,140.812-408.37,140.812
	c-26.527,0-52.746-1.584-78.484-4.687c145.547,93.328,318.361,147.81,504.07,147.81c604.822,0,935.603-501.069,935.603-935.603
	c0-14.266-0.313-28.425-1.002-42.533C2078.081,878.888,2133.713,821.17,2177.926,755.053L2177.926,755.053z"/>
</svg>
