<?xml version="1.0" encoding="utf-8"?>
<!-- Generator: Adobe Illustrator 15.1.0, SVG Export Plug-In . SVG Version: 6.00 Build 0)  -->
<!DOCTYPE svg PUBLIC "-//W3C//DTD SVG 1.1//EN" "http://www.w3.org/Graphics/SVG/1.1/DTD/svg11.dtd">
<svg version="1.1" id="Layer_1" xmlns="http://www.w3.org/2000/svg" xmlns:xlink="http://www.w3.org/1999/xlink" x="0px" y="0px"
	 width="2500px" height="2500px" viewBox="0 -780.5 2500 2500" enable-background="new 0 -780.5 2500 2500" xml:space="preserve">
<path fill="#201C1D" d="M902.58,372.908c-38.611,0-81.713,14.874-90.745,63.833c-0.962,5.2,2.481,7.682,5.808,8.441l39.573,4.744
	c3.663-0.186,6.145-4.169,6.854-7.917c3.376-16.849,17.238-24.801,32.719-24.801c8.356,0,17.744,2.87,22.69,10.551
	c5.673,8.56,5.268,20.192,5.268,30.068v5.808c-23.518,2.701-54.48,4.339-76.496,14.249c-25.409,11.294-43.254,34.271-43.254,68.054
	c0,43.288,26.523,64.897,60.677,64.897c28.836,0,44.774-6.77,67.008-30.068c7.378,10.975,9.742,15.955,23.214,27.436
	c3.056,1.742,6.886,1.32,9.488-1.047v0.522c8.104-7.395,22.843-20.833,31.131-27.957c3.31-2.769,2.584-7.328,0-11.076
	c-7.411-10.5-15.295-18.976-15.295-38.509v-64.897c0-27.485,2.33-52.826-17.406-71.751
	C948.231,378.175,922.299,372.908,902.58,372.908L902.58,372.908z M1434.387,372.908c-38.627,0-81.695,14.874-90.744,63.833
	c-0.963,5.2,2.465,7.682,5.808,8.441l39.573,4.744c3.663-0.186,6.162-4.169,6.854-7.917c3.394-16.849,17.238-24.801,32.72-24.801
	c8.373,0,17.743,2.87,22.689,10.551c5.656,8.56,4.745,20.192,4.745,30.068v5.808c-23.518,2.701-53.94,4.339-75.973,14.249
	c-25.426,11.294-43.254,34.271-43.254,68.054c0,43.288,26.539,64.897,60.676,64.897c28.803,0,44.74-6.77,67.009-30.068
	c7.36,10.975,9.741,15.955,23.214,27.436c3.039,1.62,6.804,1.451,9.487-1.047v0.522c8.104-7.395,22.843-20.833,31.133-27.957
	c3.292-2.769,2.532-7.328,0-11.076c-7.412-10.5-15.296-18.976-15.296-38.509v-64.897c0-27.485,1.772-52.826-17.93-71.751
	C1479.498,378.175,1454.105,372.908,1434.387,372.908L1434.387,372.908z M1135.241,375.018c-24.953,0-43.456,12.595-53.282,39.574
	h-0.523v-27.958c-0.278-3.964-3.432-7.118-7.396-7.395h-37.986c-4.347,0.064-7.855,3.572-7.918,7.918v213.669
	c0.371,3.92,3.474,7.022,7.394,7.394h40.621c4.354-0.045,7.872-3.563,7.917-7.917V486.866c0-24.733-1.198-58.566,27.958-58.566
	c28.785,0,24.801,34.762,24.801,58.566v113.436c0,4.034,3.292,7.647,7.394,7.917h40.62c4.354-0.045,7.873-3.563,7.918-7.917V486.866
	c0-12.139-0.489-29.815,3.697-40.62c4.17-10.805,14.418-17.93,24.277-17.93c11.75,0,20.715,4.103,23.737,18.47
	c1.891,8.543,1.046,31.115,1.046,40.097v113.436c0,4.035,3.292,7.648,7.395,7.918h40.62c4.354-0.046,7.872-3.564,7.918-7.918
	V465.256c0-22.943,2.313-48.993-10.552-67.007c-11.362-16.173-29.933-23.214-46.951-23.214c-23.872,0-46.073,12.595-55.916,39.574
	C1176.654,387.629,1160.616,375.018,1135.241,375.018L1135.241,375.018z M1825.865,375.018c-58.702,0-91.27,51.611-91.27,118.18
	c0,66.112,32.213,119.227,91.27,119.227c56.81,0,92.854-51.898,92.854-117.134C1918.72,427.877,1886.068,375.018,1825.865,375.018
	L1825.865,375.018z M2057.462,375.018c-28.042,0-44.063,14.03-55.392,43.254h-0.524v-32.719c-0.726-3.309-3.849-5.605-7.394-5.808
	h-37.464c-4.009-0.09-7.433,2.874-7.918,6.854v213.668c0.08,4.141,3.269,7.557,7.396,7.918h40.096
	c4.347-0.063,7.855-3.571,7.918-7.918V485.263c0-14.419,1.216-27.57,6.855-40.62c4.558-10.35,13.354-16.883,23.213-16.883
	c27.992,0,25.325,34.12,25.325,57.503v116.068c0.534,3.746,3.618,6.605,7.394,6.854h40.62c3.984,0,7.445-3.039,7.918-6.854V466.792
	c0-20.681,0.051-49.416-10.552-66.484C2093.591,381.889,2075.611,375.018,2057.462,375.018L2057.462,375.018z M1569.973,378.715
	c-4.12,0-7.378,3.275-7.395,7.918v30.592c0.017,4.575,3.174,7.884,7.395,7.917h69.641l-79.669,117.656
	c-4.862,7.58-5.268,16.174-5.268,21.104v31.132c0,4.49,4.879,9.37,9.488,6.854c45.397-24.784,99.811-22.59,140.87-0.523
	c4.979,2.719,10.027-2.381,10.027-6.854v-32.719c-0.234-4.908-3.047-9.325-7.395-11.616c-23.298-13.404-50.345-17.507-75.972-16.882
	l69.117-101.297c6.398-9.1,9.979-14.586,10.029-18.993v-26.371c0-4.542-3.107-7.918-7.396-7.918H1569.973z M1825.865,418.812
	c12.863,0,22.353,5.74,26.91,20.581c5.268,17.102,5.808,38.458,5.808,56.456c0,27.418-1.283,72.798-32.718,72.798
	c-31.791,0-31.656-56.186-31.656-82.303C1794.209,460.293,1795.948,418.812,1825.865,418.812z M924.207,496.895v8.965
	c0,16.225,0.591,29.883-7.395,44.316c-6.449,11.734-16.579,18.994-27.958,18.994c-15.532,0-24.801-12.595-24.801-30.592
	C864.07,503.091,894.898,496.895,924.207,496.895z M1456.014,496.895v8.965c0,16.225,0.591,29.883-7.395,44.316
	c-6.449,11.734-16.528,18.994-27.958,18.994c-15.55,0-24.801-12.595-24.801-30.592
	C1395.877,503.091,1426.672,496.895,1456.014,496.895z"/>
<path d="M1719.283,615.074v30.592h20.58v-30.592H1719.283z M1122.579,620.341v217.89h18.993v-19.517
	c4.052,7.731,8.661,13.522,14.249,17.406c5.571,3.883,11.97,5.807,18.993,5.807c13.945,0,25.982-7.123,36.399-21.626
	c10.417-14.502,15.836-35.521,15.836-62.264c0-17.507-2.245-32.01-6.854-44.317c-4.609-12.273-10.771-21.407-18.47-27.435
	c-7.699-6.026-16.444-9.488-25.847-9.488c-6.538-0.069-12.953,1.761-18.47,5.268c-5.487,3.512-9.927,9.234-14.249,16.359v-78.082
	L1122.579,620.341L1122.579,620.341z M1317.794,671.529c-14.315,0-25.678,4.238-33.765,12.662
	c-8.088,8.408-12.139,19.264-12.139,32.719c0,7.817,1.756,14.419,4.744,20.581s7.292,11.108,12.662,14.772
	c5.402,3.663,16.173,8.475,32.178,13.708c11.075,3.563,17.693,6.602,20.58,8.965c4.188,3.461,6.331,8.002,6.331,14.249
	c0,7.226-2.498,13.253-7.395,17.93c-4.879,4.711-11.666,6.854-20.58,6.854s-16.258-2.498-21.627-7.918
	c-5.368-5.419-8.272-13.658-9.487-24.801l-20.581,4.221c4.644,33.85,21.526,50.665,50.649,50.647
	c15.532,0,27.417-4.406,36.398-13.708c8.982-9.303,13.709-21.863,13.709-36.939c0-8.138-1.436-15.194-4.221-21.104
	c-2.785-5.908-6.618-10.281-11.615-13.709c-5.015-3.41-16.19-7.969-33.242-13.708c-12.393-4.34-19.652-7.514-22.15-9.488
	c-4.204-3.344-6.331-7.901-6.331-13.709c0-5.943,1.958-10.974,6.331-14.772c4.372-3.799,11.108-5.809,20.057-5.809
	c15.734,0,24.531,8.645,26.371,25.849l20.057-3.174c-1.385-10.89-3.765-19.483-7.395-25.325
	c-3.631-5.841-8.999-10.771-15.836-14.248C1334.677,672.813,1326.826,671.529,1317.794,671.529L1317.794,671.529z M1443.893,671.529
	c-16.495,0-30.407,6.787-41.161,21.104s-15.836,35.049-15.836,62.265c0,26.218,5.183,46.765,15.836,60.677
	c10.653,13.894,24.463,20.579,41.684,20.579c13.691,0,25.037-4.103,34.289-12.662c9.269-8.56,15.987-21.153,19.516-37.985
	l-21.103-3.698c-6.062,21.56-17.237,32.145-32.719,32.179c-9.859,0-17.913-4.188-24.801-13.185
	c-6.889-9.016-10.789-22.387-11.615-40.097h90.745v-7.396c0-26.624-5.302-46.613-15.837-60.677
	C1472.389,678.57,1459.609,671.529,1443.893,671.529L1443.893,671.529z M1568.926,671.529c-4.93,0-9.235,1.672-13.186,5.268
	c-3.95,3.597-8.441,11.059-13.186,22.15V674.67h-18.47v157.752h20.58v-82.286c0-11.479,1.08-22.521,3.697-32.719
	c1.485-5.841,4.288-10.45,7.918-13.709c3.63-3.258,7.767-4.744,12.14-4.744c4.845,0,9.656,1.942,14.772,5.808l6.854-24.801
	C1582.854,674.231,1575.813,671.529,1568.926,671.529L1568.926,671.529z M1821.104,671.529c-16.292,0-29.714,6.854-40.097,20.581
	c-10.35,13.709-15.837,34.305-15.837,61.723c0,27.198,5.539,47.813,15.837,61.724c10.281,13.895,23.146,20.58,39.032,20.58
	c13.118,0,24.396-4.879,33.767-14.772c9.369-9.893,15.075-24.445,17.405-43.254l-20.057-3.174
	c-1.485,13.456-4.997,23.129-10.552,29.545c-5.554,6.382-12.239,9.488-20.057,9.488c-9.961,0-18.437-4.643-24.801-14.249
	c-6.365-9.606-9.488-24.97-9.488-46.428c0-20.799,3.359-35.809,10.028-45.381s15.161-14.772,25.324-14.772
	c6.787,0,12.577,2.634,17.406,7.918c4.862,5.268,8.087,13.642,10.028,24.277l20.058-4.22c-2.415-16.613-7.75-29.157-16.36-37.464
	C1844.131,675.328,1833.681,671.529,1821.104,671.529L1821.104,671.529z M1938.759,671.529c-16.494,0-30.405,6.787-41.159,21.104
	c-10.755,14.316-15.836,35.049-15.836,62.265c0,26.218,5.183,46.765,15.836,60.677c10.67,13.894,24.463,20.579,41.684,20.579
	c13.657,0,25.02-4.103,34.288-12.662c9.252-8.56,15.971-21.153,19.517-37.985l-21.104-3.698
	c-6.061,21.56-16.748,32.145-32.178,32.179c-9.859,0-18.437-4.188-25.325-13.185c-6.888-9.016-10.771-22.387-11.615-40.097h90.745
	v-7.396c0-26.624-5.301-46.613-15.836-60.677C1967.308,678.57,1954.494,671.529,1938.759,671.529L1938.759,671.529z
	 M2060.637,671.529c-14.352,0-25.68,4.238-33.767,12.662c-8.104,8.408-12.138,19.264-12.138,32.719
	c0,7.817,1.231,14.419,4.22,20.581c2.972,6.145,7.26,11.108,12.662,14.772c5.369,3.663,16.19,8.475,32.179,13.708
	c11.041,3.563,18.217,6.602,21.104,8.965c4.187,3.461,6.331,8.002,6.331,14.249c0,7.226-2.499,13.253-7.395,17.93
	c-4.862,4.711-11.666,6.854-20.581,6.854c-8.931,0-16.258-2.498-21.626-7.918c-5.369-5.419-8.83-13.658-10.028-24.801l-20.58,4.221
	c4.643,33.85,21.491,50.665,50.648,50.647c15.548,0,27.94-4.406,36.939-13.708c8.998-9.303,13.708-21.863,13.708-36.939
	c0-8.138-1.435-15.194-4.221-21.104c-2.785-5.908-7.124-10.281-12.139-13.709c-4.997-3.41-15.667-7.969-32.719-13.708
	c-12.392-4.34-20.175-7.514-22.69-9.488c-4.204-3.344-6.33-7.901-6.33-13.709c0-5.943,2.481-10.974,6.854-14.772
	s11.143-5.809,20.057-5.809c15.734,0,24.531,8.645,26.371,25.849l20.057-3.174c-1.401-10.89-3.748-19.483-7.395-25.325
	c-3.873-6.111-9.352-11.041-15.836-14.248C2077.552,672.813,2069.65,671.529,2060.637,671.529L2060.637,671.529z M1590.029,674.687
	l45.904,157.753h19.516l45.904-157.753h-21.104l-26.91,96.553c-3.259,11.666-6.129,21.745-7.919,30.068
	c-2.245-10.484-4.39-21.492-7.395-32.179l-26.37-94.442H1590.029L1590.029,674.687z M1719.283,674.687v157.753h20.58V674.687
	H1719.283L1719.283,674.687z M1042.926,676.797c-16.326,0-29.461,7.328-40.097,21.627c-10.653,14.316-16.359,35.049-16.359,62.264
	c0,26.219,5.268,46.242,15.836,60.137s24.632,21.103,41.684,21.103c13.54,0,24.598-4.625,33.766-13.185
	c9.15-8.56,15.481-21.154,18.993-37.986l-20.579-3.174c-5.994,21.56-16.883,32.145-32.179,32.179c-9.775,0-17.98-4.187-24.8-13.186
	c-6.821-9.016-10.789-22.387-11.616-40.097h89.681l0.524-7.395c0-26.624-5.402-47.137-15.836-61.2
	C1071.508,683.82,1058.475,676.797,1042.926,676.797L1042.926,676.797z M811.311,680.494l36.94,157.753h21.626l24.278-121.354
	l4.22,26.911l19.516,94.442h21.104l37.463-157.753h-19.517l-20.58,91.269l-6.854,30.592l-6.331-30.592l-17.93-91.269h-21.104
	l-18.993,92.333l-6.331,32.718l-7.395-33.766l-18.994-91.268h-21.121V680.494z M2124.47,682.082v7.395h20.057v52.759h7.918v-52.759
	h20.057v-7.395H2124.47L2124.47,682.082z M2180.402,682.082v60.137h7.395v-51.172l17.406,51.171h7.395l17.406-50.125v50.125h7.918
	v-60.136h-11.075l-14.249,42.207c-1.436,4.22-2.465,7.276-3.174,9.487l-3.174-8.965l-14.249-42.729H2180.402L2180.402,682.082z
	 M1443.352,693.156c10.248,0,18.688,4.964,25.324,14.772c4.558,6.72,7.513,16.951,8.441,30.592h-68.055
	c0.642-13.844,4.559-24.53,11.075-32.719C1426.654,697.614,1434.15,693.156,1443.352,693.156z M1938.235,693.156
	c10.214,0,18.689,4.964,25.325,14.772c4.558,6.72,7.512,16.951,8.44,30.592h-68.054c0.642-13.844,4.558-24.53,11.075-32.719
	C1921.522,697.647,1929.019,693.156,1938.235,693.156z M1042.926,698.964c10.129,0,18.267,4.964,24.801,14.772
	c4.508,6.72,7.513,16.95,8.442,30.592h-67.009c0.642-13.843,4.069-25.054,10.552-33.242
	C1026.145,702.915,1033.793,698.964,1042.926,698.964z M1173.768,698.964c9.15,0,16.933,5.082,23.213,14.772
	c6.281,9.708,8.965,24.666,8.965,45.381c0,20.176-2.971,35.218-9.488,45.381c-6.517,10.164-14.283,15.296-22.69,15.296
	c-6.179,0-11.801-2.076-16.883-6.331c-5.099-4.254-8.83-10.349-11.616-18.47c-2.786-8.12-4.22-20.613-4.22-36.939
	c0-19.229,3.428-33.63,10.028-43.794C1157.678,704.097,1165.36,698.964,1173.768,698.964L1173.768,698.964z"/>
<path fill="#F7A80D" d="M515.593,531.707l-78.606,33.765l72.798,31.133l84.414-31.133L515.593,531.707z M397.414,573.913
	l-2.634,151.945l115.005,50.648V618.754L397.414,573.913L397.414,573.913z M633.773,573.913l-103.931,39.573v148.771l103.931-42.207
	V573.913L633.773,573.913z M757.759,101.196l-79.146,33.766l73.339,31.132l84.414-31.132L757.759,101.196z M648.021,146.054v151.945
	l98.123,28.498l3.174-138.236L648.021,146.054z M867.498,154.495l-92.855,39.573v149.311l92.855-42.207V154.495z M386.068,315.05
	l-78.605,33.766l72.798,31.132l84.414-31.132L386.068,315.05L386.068,315.05z M267.89,357.257l-2.634,151.945l115.005,50.648
	V402.098L267.89,357.257z M504.248,357.257l-103.93,39.573v148.771l103.93-42.207V357.257z M639.31,309.445l-78.606,33.766
	l72.798,31.132l84.414-31.132L639.31,309.445z M521.131,351.652l-2.634,151.944l115.005,50.649V396.51L521.131,351.652z
	 M757.49,351.652l-103.93,39.573v148.771l103.93-42.207V351.652z M1005.109,101.196l-78.606,33.766l72.799,31.132l84.413-31.132
	L1005.109,101.196z M886.929,143.403l-2.633,151.945l115.005,50.648V188.261L886.929,143.403z M1123.288,143.403l-103.93,39.573
	v148.771l103.93-42.207V143.403z"/>
</svg>
