<?xml version="1.0" encoding="utf-8"?>
<!-- Generator: Adobe Illustrator 15.1.0, SVG Export Plug-In . SVG Version: 6.00 Build 0)  -->
<!DOCTYPE svg PUBLIC "-//W3C//DTD SVG 1.1//EN" "http://www.w3.org/Graphics/SVG/1.1/DTD/svg11.dtd">
<svg version="1.1" id="svg3030" xmlns:svg="http://www.w3.org/2000/svg"
	 xmlns="http://www.w3.org/2000/svg" xmlns:xlink="http://www.w3.org/1999/xlink" x="0px" y="0px" width="600px" height="600px"
	 viewBox="-4.516 -220.488 600 600" enable-background="new -4.516 -220.488 600 600" xml:space="preserve">
<rect x="-4.516" y="-220.488" fill="#86C440" width="600" height="600"/>
<path id="path22" fill="#404137" d="M297.807,19c-0.312,0.004-0.626,0.079-0.904,0.242c-0.556,0.326-0.905,0.924-0.905,1.568v46.152
	c0,0.453-0.211,0.858-0.604,1.086c-0.393,0.228-0.873,0.228-1.267,0l-7.541-4.344c-1.124-0.648-2.496-0.647-3.62,0l-30.104,17.375
	c-1.125,0.649-1.81,1.898-1.81,3.197v34.75c0,1.298,0.685,2.486,1.81,3.138l30.104,17.374c1.125,0.649,2.494,0.649,3.62,0
	l30.104-17.374c1.124-0.651,1.81-1.84,1.81-3.138V32.394c0-1.318-0.72-2.555-1.871-3.198l-17.917-10.015
	C298.431,19.024,298.118,18.997,297.807,19L297.807,19z M104.151,62.376c-0.574,0.023-1.113,0.124-1.629,0.422L72.417,80.173
	c-1.121,0.648-1.81,1.83-1.81,3.138l0.06,46.634c0,0.649,0.335,1.252,0.905,1.569c0.559,0.335,1.253,0.335,1.81,0l17.857-10.256
	c1.131-0.672,1.87-1.842,1.87-3.138V96.342c0-1.299,0.684-2.492,1.81-3.137l7.602-4.404c0.567-0.328,1.176-0.482,1.81-0.482
	c0.621,0,1.258,0.153,1.81,0.482l7.601,4.404c1.127,0.645,1.81,1.838,1.81,3.137v21.778c0,1.296,0.747,2.473,1.871,3.138
	l17.857,10.256c0.561,0.335,1.253,0.335,1.81,0c0.555-0.317,0.905-0.92,0.905-1.569l0.06-46.634c0-1.308-0.68-2.489-1.81-3.138
	l-30.104-17.375c-0.509-0.298-1.051-0.398-1.629-0.422H104.151L104.151,62.376z M374.666,62.799c-0.629,0-1.245,0.159-1.81,0.483
	l-30.104,17.375c-1.124,0.649-1.811,1.837-1.811,3.137v34.75c0,1.307,0.737,2.491,1.871,3.137l29.862,17.013
	c1.104,0.63,2.45,0.677,3.56,0.061l18.099-10.075c0.574-0.319,0.963-0.914,0.966-1.569s-0.338-1.242-0.905-1.568l-30.285-17.375
	c-0.567-0.323-0.966-0.978-0.966-1.629V95.678c0-0.649,0.404-1.244,0.966-1.569l9.411-5.429c0.561-0.324,1.248-0.324,1.811,0
	l9.411,5.429c0.562,0.325,0.904,0.92,0.904,1.569v8.566c0,0.65,0.343,1.244,0.905,1.568c0.565,0.325,1.248,0.327,1.81,0
	l18.039-10.497c1.119-0.65,1.81-1.842,1.81-3.138v-8.385c0-1.296-0.688-2.487-1.81-3.138l-29.924-17.375
	C375.913,62.955,375.295,62.799,374.666,62.799L374.666,62.799z M284.655,88.741c0.157,0,0.342,0.039,0.482,0.119l10.316,5.973
	c0.28,0.162,0.483,0.461,0.483,0.785v11.944c0,0.324-0.201,0.623-0.483,0.785l-10.316,5.973c-0.281,0.159-0.624,0.159-0.905,0
	l-10.316-5.973c-0.281-0.163-0.482-0.461-0.482-0.785V95.618c0-0.324,0.203-0.621,0.482-0.785l10.316-5.971
	C284.374,88.78,284.498,88.742,284.655,88.741L284.655,88.741z"/>
<path id="path28" fill="#FFFFFF" d="M464.858,61.955c-1.044,0-2.059,0.216-2.957,0.724l-28.415,16.41
	c-1.838,1.059-2.955,3.06-2.955,5.188v32.76c0,2.127,1.117,4.126,2.955,5.188l7.421,4.283c3.605,1.776,4.936,1.75,6.576,1.75
	c5.338,0,8.386-3.239,8.386-8.869V87.051c0-0.457-0.396-0.785-0.845-0.785h-3.56c-0.456,0-0.845,0.328-0.845,0.785v32.336
	c0,2.495-2.599,5.005-6.817,2.896l-7.722-4.524c-0.272-0.148-0.482-0.412-0.482-0.724v-32.76c0-0.311,0.208-0.627,0.482-0.784
	l28.354-16.349c0.266-0.152,0.582-0.152,0.845,0l28.354,16.349c0.271,0.162,0.482,0.464,0.482,0.784v32.76
	c0,0.312-0.156,0.633-0.422,0.783l-28.415,16.35c-0.244,0.145-0.579,0.145-0.845,0l-7.299-4.344c-0.219-0.127-0.515-0.118-0.725,0
	c-2.016,1.143-2.394,1.275-4.283,1.931c-0.466,0.162-1.173,0.415,0.241,1.207l9.531,5.609c0.908,0.525,1.919,0.785,2.957,0.785
	c1.052,0,2.049-0.26,2.955-0.785l28.415-16.349c1.839-1.069,2.957-3.061,2.957-5.188v-32.76c0-2.128-1.118-4.124-2.957-5.188
	l-28.415-16.41C466.924,62.17,465.901,61.955,464.858,61.955L464.858,61.955z M194.584,62.618c-0.627,0-1.248,0.158-1.81,0.482
	L162.67,80.416c-1.125,0.648-1.81,1.898-1.81,3.197v34.749c0,1.3,0.686,2.487,1.81,3.137l30.104,17.375
	c1.125,0.65,2.494,0.65,3.619,0l30.104-17.375c1.124-0.649,1.81-1.837,1.81-3.137V83.613c0-1.3-0.685-2.549-1.81-3.197
	l-30.104-17.315C195.832,62.776,195.211,62.618,194.584,62.618z M507.027,62.799v0.845h2.354v6.214h0.965v-6.214h2.414v-0.845
	H507.027z M513.604,62.799v7.059h0.905v-4.163c0-0.17,0.008-0.433,0-0.784c-0.012-0.358,0-0.67,0-0.845v-0.182l1.991,5.973h0.965
	l2.051-5.973c0,0.38-0.051,0.747-0.061,1.086c-0.003,0.331,0,0.578,0,0.724v4.163h0.905v-7.059h-1.327l-2.051,5.973l-1.99-5.973
	L513.604,62.799L513.604,62.799z M472.46,85.363c-8.092,0-12.911,3.443-12.911,9.17c0,6.212,4.783,7.919,12.549,8.688
	c9.291,0.909,10.015,2.273,10.015,4.103c0,3.172-2.529,4.524-8.507,4.524c-7.509,0-9.16-1.875-9.713-5.61
	c-0.064-0.401-0.374-0.725-0.784-0.725h-3.68c-0.454,0-0.845,0.39-0.845,0.845c0,4.781,2.602,10.438,15.021,10.438
	c8.991,0,14.178-3.53,14.178-9.714c0-6.13-4.189-7.775-12.91-8.929c-8.813-1.165-9.653-1.736-9.653-3.8
	c0-1.704,0.712-3.982,7.24-3.982c5.829,0,7.984,1.258,8.867,5.188c0.078,0.37,0.404,0.664,0.785,0.664h3.68
	c0.227,0,0.446-0.14,0.604-0.302c0.154-0.174,0.263-0.37,0.241-0.604C486.067,88.546,481.552,85.363,472.46,85.363L472.46,85.363z
	 M374.606,93.627c-0.121,0-0.254,0-0.363,0.06l-5.791,3.379c-0.217,0.123-0.361,0.354-0.361,0.603v6.637
	c0,0.25,0.145,0.479,0.361,0.604l5.791,3.318c0.218,0.125,0.449,0.125,0.664,0l5.792-3.318c0.215-0.123,0.361-0.354,0.361-0.604
	v-6.637c0-0.249-0.146-0.479-0.361-0.603l-5.792-3.379C374.8,93.625,374.727,93.627,374.606,93.627z"/>
</svg>
